<svg xmlns="http://www.w3.org/2000/svg" xmlns:xlink="http://www.w3.org/1999/xlink" width="600" zoomAndPan="magnify" viewBox="0 0 450 337.499995" height="450" preserveAspectRatio="xMidYMid meet" version="1.0"><defs><clipPath id="ddfca2f726"><path d="M 0.332031 0 L 449.667969 0 L 449.667969 337 L 0.332031 337 Z M 0.332031 0 " clip-rule="nonzero"/></clipPath><clipPath id="dfa0428820"><path d="M 70.277344 73.316406 L 379.871094 73.316406 L 379.871094 165.355469 L 70.277344 165.355469 Z M 70.277344 73.316406 " clip-rule="nonzero"/></clipPath><clipPath id="5eec925891"><path d="M 92 91 L 123 91 L 123 149 L 92 149 Z M 92 91 " clip-rule="nonzero"/></clipPath><clipPath id="a475d3c5fa"><path d="M 93.871094 91.140625 C 93.269531 91.738281 92.746094 92.863281 92.746094 94.285156 L 92.746094 144.761719 C 92.746094 146.183594 93.046875 147.308594 93.871094 147.90625 L 94.167969 148.207031 L 122.476562 119.972656 L 122.476562 119.375 Z M 93.871094 91.140625 " clip-rule="nonzero"/></clipPath><linearGradient x1="283.947636" gradientTransform="matrix(0.748891, 0, 0, -0.748891, -90.24165, 284.100778)" y1="181.367542" x2="226.538927" gradientUnits="userSpaceOnUse" y2="240.323592" id="2d95828ae5"><stop stop-opacity="1" stop-color="rgb(27.059937%, 58.81958%, 82.348633%)" offset="0"/><stop stop-opacity="1" stop-color="rgb(27.059937%, 58.843994%, 82.374573%)" offset="0.0625"/><stop stop-opacity="1" stop-color="rgb(27.059937%, 59.033203%, 82.563782%)" offset="0.0703125"/><stop stop-opacity="1" stop-color="rgb(27.029419%, 59.34906%, 82.83844%)" offset="0.078125"/><stop stop-opacity="1" stop-color="rgb(26.96991%, 59.651184%, 83.055115%)" offset="0.0859375"/><stop stop-opacity="1" stop-color="rgb(26.907349%, 59.953308%, 83.267212%)" offset="0.09375"/><stop stop-opacity="1" stop-color="rgb(26.844788%, 60.255432%, 83.480835%)" offset="0.101562"/><stop stop-opacity="1" stop-color="rgb(26.782227%, 60.557556%, 83.692932%)" offset="0.109375"/><stop stop-opacity="1" stop-color="rgb(26.719666%, 60.858154%, 83.906555%)" offset="0.117187"/><stop stop-opacity="1" stop-color="rgb(26.65863%, 61.160278%, 84.120178%)" offset="0.125"/><stop stop-opacity="1" stop-color="rgb(26.596069%, 61.462402%, 84.332275%)" offset="0.132812"/><stop stop-opacity="1" stop-color="rgb(26.533508%, 61.764526%, 84.545898%)" offset="0.140625"/><stop stop-opacity="1" stop-color="rgb(26.470947%, 62.065125%, 84.757996%)" offset="0.148438"/><stop stop-opacity="1" stop-color="rgb(26.408386%, 62.367249%, 84.971619%)" offset="0.15625"/><stop stop-opacity="1" stop-color="rgb(26.347351%, 62.669373%, 85.183716%)" offset="0.164062"/><stop stop-opacity="1" stop-color="rgb(26.28479%, 62.971497%, 85.397339%)" offset="0.171875"/><stop stop-opacity="1" stop-color="rgb(26.222229%, 63.272095%, 85.610962%)" offset="0.179687"/><stop stop-opacity="1" stop-color="rgb(26.159668%, 63.574219%, 85.823059%)" offset="0.1875"/><stop stop-opacity="1" stop-color="rgb(26.098633%, 63.876343%, 86.036682%)" offset="0.195312"/><stop stop-opacity="1" stop-color="rgb(26.036072%, 64.176941%, 86.248779%)" offset="0.203125"/><stop stop-opacity="1" stop-color="rgb(25.973511%, 64.479065%, 86.462402%)" offset="0.210937"/><stop stop-opacity="1" stop-color="rgb(25.91095%, 64.781189%, 86.676025%)" offset="0.21875"/><stop stop-opacity="1" stop-color="rgb(25.848389%, 65.083313%, 86.888123%)" offset="0.226562"/><stop stop-opacity="1" stop-color="rgb(25.787354%, 65.383911%, 87.101746%)" offset="0.234375"/><stop stop-opacity="1" stop-color="rgb(25.724792%, 65.686035%, 87.313843%)" offset="0.242187"/><stop stop-opacity="1" stop-color="rgb(25.662231%, 65.988159%, 87.527466%)" offset="0.25"/><stop stop-opacity="1" stop-color="rgb(25.59967%, 66.290283%, 87.739563%)" offset="0.257812"/><stop stop-opacity="1" stop-color="rgb(25.537109%, 66.590881%, 87.953186%)" offset="0.265625"/><stop stop-opacity="1" stop-color="rgb(25.476074%, 66.893005%, 88.166809%)" offset="0.273437"/><stop stop-opacity="1" stop-color="rgb(25.413513%, 67.195129%, 88.378906%)" offset="0.28125"/><stop stop-opacity="1" stop-color="rgb(25.350952%, 67.497253%, 88.592529%)" offset="0.289062"/><stop stop-opacity="1" stop-color="rgb(25.288391%, 67.797852%, 88.804626%)" offset="0.296875"/><stop stop-opacity="1" stop-color="rgb(25.22583%, 68.099976%, 89.01825%)" offset="0.304688"/><stop stop-opacity="1" stop-color="rgb(25.164795%, 68.4021%, 89.231873%)" offset="0.3125"/><stop stop-opacity="1" stop-color="rgb(25.102234%, 68.702698%, 89.44397%)" offset="0.320312"/><stop stop-opacity="1" stop-color="rgb(25.039673%, 69.004822%, 89.657593%)" offset="0.328125"/><stop stop-opacity="1" stop-color="rgb(24.977112%, 69.306946%, 89.86969%)" offset="0.335937"/><stop stop-opacity="1" stop-color="rgb(24.914551%, 69.60907%, 90.083313%)" offset="0.336572"/><stop stop-opacity="1" stop-color="rgb(24.884033%, 69.760132%, 90.190125%)" offset="0.34375"/><stop stop-opacity="1" stop-color="rgb(24.853516%, 69.909668%, 90.29541%)" offset="0.351562"/><stop stop-opacity="1" stop-color="rgb(24.790955%, 70.211792%, 90.509033%)" offset="0.359375"/><stop stop-opacity="1" stop-color="rgb(24.728394%, 70.513916%, 90.722656%)" offset="0.367187"/><stop stop-opacity="1" stop-color="rgb(24.665833%, 70.81604%, 90.934753%)" offset="0.375"/><stop stop-opacity="1" stop-color="rgb(24.604797%, 71.116638%, 91.148376%)" offset="0.382812"/><stop stop-opacity="1" stop-color="rgb(24.542236%, 71.418762%, 91.360474%)" offset="0.390625"/><stop stop-opacity="1" stop-color="rgb(24.479675%, 71.720886%, 91.574097%)" offset="0.398437"/><stop stop-opacity="1" stop-color="rgb(24.417114%, 72.02301%, 91.78772%)" offset="0.40625"/><stop stop-opacity="1" stop-color="rgb(24.354553%, 72.323608%, 91.999817%)" offset="0.414062"/><stop stop-opacity="1" stop-color="rgb(24.353027%, 72.538757%, 92.138672%)" offset="0.421875"/><stop stop-opacity="1" stop-color="rgb(24.481201%, 72.674561%, 92.189026%)" offset="0.4375"/><stop stop-opacity="1" stop-color="rgb(24.676514%, 72.816467%, 92.225647%)" offset="0.453125"/><stop stop-opacity="1" stop-color="rgb(24.873352%, 72.9599%, 92.260742%)" offset="0.46875"/><stop stop-opacity="1" stop-color="rgb(25.07019%, 73.101807%, 92.295837%)" offset="0.484375"/><stop stop-opacity="1" stop-color="rgb(25.267029%, 73.245239%, 92.330933%)" offset="0.5"/><stop stop-opacity="1" stop-color="rgb(25.462341%, 73.387146%, 92.367554%)" offset="0.515625"/><stop stop-opacity="1" stop-color="rgb(25.65918%, 73.530579%, 92.402649%)" offset="0.53125"/><stop stop-opacity="1" stop-color="rgb(25.856018%, 73.672485%, 92.437744%)" offset="0.546875"/><stop stop-opacity="1" stop-color="rgb(26.051331%, 73.815918%, 92.472839%)" offset="0.5625"/><stop stop-opacity="1" stop-color="rgb(26.248169%, 73.957825%, 92.50946%)" offset="0.578125"/><stop stop-opacity="1" stop-color="rgb(26.445007%, 74.101257%, 92.544556%)" offset="0.59375"/><stop stop-opacity="1" stop-color="rgb(26.64032%, 74.243164%, 92.579651%)" offset="0.609375"/><stop stop-opacity="1" stop-color="rgb(26.837158%, 74.386597%, 92.614746%)" offset="0.625"/><stop stop-opacity="1" stop-color="rgb(27.033997%, 74.528503%, 92.649841%)" offset="0.640625"/><stop stop-opacity="1" stop-color="rgb(27.229309%, 74.671936%, 92.686462%)" offset="0.65625"/><stop stop-opacity="1" stop-color="rgb(27.426147%, 74.815369%, 92.721558%)" offset="0.663428"/><stop stop-opacity="1" stop-color="rgb(27.52533%, 74.887085%, 92.739868%)" offset="0.671875"/><stop stop-opacity="1" stop-color="rgb(27.622986%, 74.957275%, 92.756653%)" offset="0.6875"/><stop stop-opacity="1" stop-color="rgb(27.818298%, 75.100708%, 92.791748%)" offset="0.703125"/><stop stop-opacity="1" stop-color="rgb(28.015137%, 75.242615%, 92.828369%)" offset="0.71875"/><stop stop-opacity="1" stop-color="rgb(28.211975%, 75.386047%, 92.863464%)" offset="0.734375"/><stop stop-opacity="1" stop-color="rgb(28.407288%, 75.527954%, 92.89856%)" offset="0.75"/><stop stop-opacity="1" stop-color="rgb(28.625488%, 75.65155%, 92.904663%)" offset="0.765625"/><stop stop-opacity="1" stop-color="rgb(28.897095%, 75.720215%, 92.828369%)" offset="0.78125"/><stop stop-opacity="1" stop-color="rgb(29.205322%, 75.756836%, 92.701721%)" offset="0.796875"/><stop stop-opacity="1" stop-color="rgb(29.51355%, 75.791931%, 92.575073%)" offset="0.8125"/><stop stop-opacity="1" stop-color="rgb(29.820251%, 75.828552%, 92.448425%)" offset="0.828125"/><stop stop-opacity="1" stop-color="rgb(30.128479%, 75.865173%, 92.321777%)" offset="0.84375"/><stop stop-opacity="1" stop-color="rgb(30.435181%, 75.900269%, 92.195129%)" offset="0.859375"/><stop stop-opacity="1" stop-color="rgb(30.743408%, 75.93689%, 92.068481%)" offset="0.875"/><stop stop-opacity="1" stop-color="rgb(31.05011%, 75.971985%, 91.941833%)" offset="0.890625"/><stop stop-opacity="1" stop-color="rgb(31.358337%, 76.008606%, 91.815186%)" offset="0.90625"/><stop stop-opacity="1" stop-color="rgb(31.666565%, 76.045227%, 91.688538%)" offset="0.921875"/><stop stop-opacity="1" stop-color="rgb(31.973267%, 76.080322%, 91.56189%)" offset="0.9375"/><stop stop-opacity="1" stop-color="rgb(32.281494%, 76.116943%, 91.436768%)" offset="0.953125"/><stop stop-opacity="1" stop-color="rgb(32.588196%, 76.152039%, 91.31012%)" offset="0.96875"/><stop stop-opacity="1" stop-color="rgb(32.896423%, 76.18866%, 91.183472%)" offset="0.984375"/><stop stop-opacity="1" stop-color="rgb(33.203125%, 76.225281%, 91.056824%)" offset="1"/></linearGradient><clipPath id="4d68700737"><path d="M 122 109 L 146 109 L 146 130 L 122 130 Z M 122 109 " clip-rule="nonzero"/></clipPath><clipPath id="51ecbd2bd2"><path d="M 131.839844 129.332031 L 122.402344 119.898438 L 122.402344 119.296875 L 131.839844 109.863281 L 132.136719 109.863281 L 143.296875 116.152344 C 146.441406 117.875 146.441406 121.019531 143.296875 122.742188 L 131.839844 129.332031 C 131.839844 129.332031 132.136719 129.332031 131.839844 129.332031 Z M 131.839844 129.332031 " clip-rule="nonzero"/></clipPath><linearGradient x1="316.044887" gradientTransform="matrix(0.748891, 0, 0, -0.748891, -90.24165, 284.100778)" y1="219.60001" x2="283.944899" gradientUnits="userSpaceOnUse" y2="219.60001" id="5f17f5d9be"><stop stop-opacity="1" stop-color="rgb(99.952698%, 87.419128%, 2.430725%)" offset="0"/><stop stop-opacity="1" stop-color="rgb(99.935913%, 87.269592%, 2.459717%)" offset="0.03125"/><stop stop-opacity="1" stop-color="rgb(99.902344%, 86.97052%, 2.5177%)" offset="0.0625"/><stop stop-opacity="1" stop-color="rgb(99.868774%, 86.672974%, 2.577209%)" offset="0.09375"/><stop stop-opacity="1" stop-color="rgb(99.836731%, 86.373901%, 2.635193%)" offset="0.125"/><stop stop-opacity="1" stop-color="rgb(99.803162%, 86.076355%, 2.693176%)" offset="0.15625"/><stop stop-opacity="1" stop-color="rgb(99.769592%, 85.777283%, 2.75116%)" offset="0.1875"/><stop stop-opacity="1" stop-color="rgb(99.736023%, 85.479736%, 2.809143%)" offset="0.21875"/><stop stop-opacity="1" stop-color="rgb(99.703979%, 85.180664%, 2.867126%)" offset="0.25"/><stop stop-opacity="1" stop-color="rgb(99.67041%, 84.883118%, 2.92511%)" offset="0.28125"/><stop stop-opacity="1" stop-color="rgb(99.636841%, 84.584045%, 2.983093%)" offset="0.3125"/><stop stop-opacity="1" stop-color="rgb(99.603271%, 84.286499%, 3.041077%)" offset="0.34375"/><stop stop-opacity="1" stop-color="rgb(99.571228%, 83.987427%, 3.09906%)" offset="0.375"/><stop stop-opacity="1" stop-color="rgb(99.537659%, 83.68988%, 3.158569%)" offset="0.40625"/><stop stop-opacity="1" stop-color="rgb(99.504089%, 83.390808%, 3.216553%)" offset="0.4375"/><stop stop-opacity="1" stop-color="rgb(99.47052%, 83.093262%, 3.274536%)" offset="0.46875"/><stop stop-opacity="1" stop-color="rgb(99.438477%, 82.794189%, 3.33252%)" offset="0.5"/><stop stop-opacity="1" stop-color="rgb(99.404907%, 82.496643%, 3.390503%)" offset="0.53125"/><stop stop-opacity="1" stop-color="rgb(99.371338%, 82.197571%, 3.448486%)" offset="0.5625"/><stop stop-opacity="1" stop-color="rgb(99.337769%, 81.900024%, 3.50647%)" offset="0.59375"/><stop stop-opacity="1" stop-color="rgb(99.305725%, 81.600952%, 3.564453%)" offset="0.625"/><stop stop-opacity="1" stop-color="rgb(99.272156%, 81.303406%, 3.622437%)" offset="0.65625"/><stop stop-opacity="1" stop-color="rgb(99.238586%, 81.004333%, 3.68042%)" offset="0.6875"/><stop stop-opacity="1" stop-color="rgb(99.205017%, 80.706787%, 3.739929%)" offset="0.71875"/><stop stop-opacity="1" stop-color="rgb(99.171448%, 80.407715%, 3.797913%)" offset="0.75"/><stop stop-opacity="1" stop-color="rgb(99.139404%, 80.110168%, 3.855896%)" offset="0.78125"/><stop stop-opacity="1" stop-color="rgb(99.105835%, 79.811096%, 3.913879%)" offset="0.8125"/><stop stop-opacity="1" stop-color="rgb(99.072266%, 79.51355%, 3.971863%)" offset="0.84375"/><stop stop-opacity="1" stop-color="rgb(99.038696%, 79.214478%, 4.029846%)" offset="0.875"/><stop stop-opacity="1" stop-color="rgb(99.006653%, 78.916931%, 4.08783%)" offset="0.90625"/><stop stop-opacity="1" stop-color="rgb(98.973083%, 78.617859%, 4.145813%)" offset="0.9375"/><stop stop-opacity="1" stop-color="rgb(98.939514%, 78.320312%, 4.203796%)" offset="0.96875"/><stop stop-opacity="1" stop-color="rgb(98.905945%, 78.02124%, 4.263306%)" offset="1"/></linearGradient><clipPath id="955ea50c72"><path d="M 93 119 L 133 119 L 133 150 L 93 150 Z M 93 119 " clip-rule="nonzero"/></clipPath><clipPath id="2c620e4b4b"><path d="M 132.136719 129.332031 L 122.402344 119.671875 L 93.792969 148.207031 C 94.917969 149.328125 96.640625 149.328125 98.664062 148.207031 Z M 132.136719 129.332031 " clip-rule="nonzero"/></clipPath><linearGradient x1="290.902942" gradientTransform="matrix(0.748891, 0, 0, -0.748891, -90.24165, 284.100778)" y1="174.078883" x2="246.190729" gradientUnits="userSpaceOnUse" y2="219.996357" id="325ddc1679"><stop stop-opacity="1" stop-color="rgb(90.979004%, 25.099182%, 28.62854%)" offset="0"/><stop stop-opacity="1" stop-color="rgb(90.979004%, 25.099182%, 28.62854%)" offset="0.442675"/><stop stop-opacity="1" stop-color="rgb(90.979004%, 25.099182%, 28.62854%)" offset="0.5"/><stop stop-opacity="1" stop-color="rgb(90.87677%, 24.960327%, 28.69873%)" offset="0.557325"/><stop stop-opacity="1" stop-color="rgb(90.776062%, 24.822998%, 28.770447%)" offset="0.625"/><stop stop-opacity="1" stop-color="rgb(90.682983%, 24.69635%, 28.834534%)" offset="0.65625"/><stop stop-opacity="1" stop-color="rgb(90.498352%, 24.443054%, 28.962708%)" offset="0.6875"/><stop stop-opacity="1" stop-color="rgb(90.312195%, 24.191284%, 29.092407%)" offset="0.71875"/><stop stop-opacity="1" stop-color="rgb(90.126038%, 23.937988%, 29.220581%)" offset="0.75"/><stop stop-opacity="1" stop-color="rgb(89.93988%, 23.684692%, 29.350281%)" offset="0.78125"/><stop stop-opacity="1" stop-color="rgb(89.755249%, 23.432922%, 29.478455%)" offset="0.8125"/><stop stop-opacity="1" stop-color="rgb(89.569092%, 23.179626%, 29.608154%)" offset="0.84375"/><stop stop-opacity="1" stop-color="rgb(89.382935%, 22.926331%, 29.736328%)" offset="0.875"/><stop stop-opacity="1" stop-color="rgb(89.196777%, 22.673035%, 29.866028%)" offset="0.90625"/><stop stop-opacity="1" stop-color="rgb(89.012146%, 22.421265%, 29.994202%)" offset="0.9375"/><stop stop-opacity="1" stop-color="rgb(88.825989%, 22.167969%, 30.123901%)" offset="0.96875"/><stop stop-opacity="1" stop-color="rgb(88.639832%, 21.914673%, 30.252075%)" offset="1"/></linearGradient><clipPath id="d5a41c7a68"><path d="M 93 90 L 133 90 L 133 120 L 93 120 Z M 93 90 " clip-rule="nonzero"/></clipPath><clipPath id="54abc9480c"><path d="M 132.136719 109.9375 L 98.664062 91.140625 C 96.640625 90.015625 94.917969 90.316406 93.792969 91.441406 L 122.402344 119.972656 Z M 132.136719 109.9375 " clip-rule="nonzero"/></clipPath><linearGradient x1="246.046064" gradientTransform="matrix(0.748891, 0, 0, -0.748891, -90.24165, 284.100778)" y1="218.868966" x2="290.958447" gradientUnits="userSpaceOnUse" y2="264.991597" id="43d4de2b25"><stop stop-opacity="1" stop-color="rgb(35.50415%, 70.687866%, 41.459656%)" offset="0"/><stop stop-opacity="1" stop-color="rgb(35.664368%, 70.713806%, 41.397095%)" offset="0.015625"/><stop stop-opacity="1" stop-color="rgb(35.986328%, 70.767212%, 41.271973%)" offset="0.03125"/><stop stop-opacity="1" stop-color="rgb(36.306763%, 70.820618%, 41.146851%)" offset="0.046875"/><stop stop-opacity="1" stop-color="rgb(36.627197%, 70.874023%, 41.021729%)" offset="0.0625"/><stop stop-opacity="1" stop-color="rgb(36.949158%, 70.928955%, 40.896606%)" offset="0.078125"/><stop stop-opacity="1" stop-color="rgb(37.211609%, 70.976257%, 40.77301%)" offset="0.09375"/><stop stop-opacity="1" stop-color="rgb(37.431335%, 71.025085%, 40.597534%)" offset="0.125"/><stop stop-opacity="1" stop-color="rgb(37.664795%, 71.083069%, 40.365601%)" offset="0.15625"/><stop stop-opacity="1" stop-color="rgb(37.898254%, 71.141052%, 40.133667%)" offset="0.1875"/><stop stop-opacity="1" stop-color="rgb(38.131714%, 71.199036%, 39.901733%)" offset="0.21875"/><stop stop-opacity="1" stop-color="rgb(38.365173%, 71.257019%, 39.6698%)" offset="0.25"/><stop stop-opacity="1" stop-color="rgb(38.650513%, 71.327209%, 39.385986%)" offset="0.445154"/><stop stop-opacity="1" stop-color="rgb(38.819885%, 71.369934%, 39.219666%)" offset="0.5"/><stop stop-opacity="1" stop-color="rgb(38.819885%, 71.369934%, 39.219666%)" offset="0.554846"/><stop stop-opacity="1" stop-color="rgb(38.819885%, 71.369934%, 39.219666%)" offset="1"/></linearGradient></defs><g clip-path="url(#ddfca2f726)"><path fill="#ffffff" d="M 0.332031 0 L 449.667969 0 L 449.667969 337 L 0.332031 337 Z M 0.332031 0 " fill-opacity="1" fill-rule="nonzero"/><path fill="#ffffff" d="M 0.332031 0 L 449.667969 0 L 449.667969 337 L 0.332031 337 Z M 0.332031 0 " fill-opacity="1" fill-rule="nonzero"/></g><g clip-path="url(#dfa0428820)"><path fill="#010202" d="M 368.414062 165.207031 L 81.738281 165.207031 C 75.445312 165.207031 70.277344 160.039062 70.277344 153.671875 L 70.277344 84.625 C 70.277344 78.332031 75.445312 73.089844 81.738281 73.089844 L 368.414062 73.089844 C 374.703125 73.089844 379.871094 78.257812 379.871094 84.625 L 379.871094 153.671875 C 379.871094 160.039062 374.703125 165.207031 368.414062 165.207031 Z M 368.414062 165.207031 " fill-opacity="1" fill-rule="nonzero"/></g><path fill="#ffffff" d="M 224.027344 123.640625 C 218.558594 123.640625 214.289062 127.609375 214.289062 133.300781 C 214.289062 138.992188 218.558594 142.964844 224.027344 142.964844 C 229.492188 142.964844 233.761719 138.992188 233.761719 133.300781 C 233.761719 127.609375 229.492188 123.640625 224.027344 123.640625 Z M 224.027344 139.292969 C 221.179688 139.292969 218.558594 136.746094 218.558594 133.300781 C 218.558594 129.859375 221.105469 127.3125 224.027344 127.3125 C 226.871094 127.3125 229.492188 129.558594 229.492188 133.300781 C 229.492188 136.746094 226.945312 139.292969 224.027344 139.292969 Z M 202.90625 123.640625 C 197.441406 123.640625 193.171875 127.609375 193.171875 133.300781 C 193.171875 138.992188 197.441406 142.964844 202.90625 142.964844 C 208.375 142.964844 212.644531 138.992188 212.644531 133.300781 C 212.644531 127.609375 208.074219 123.640625 202.90625 123.640625 Z M 202.90625 139.292969 C 200.0625 139.292969 197.441406 136.746094 197.441406 133.300781 C 197.441406 129.859375 199.988281 127.3125 202.90625 127.3125 C 205.753906 127.3125 208.375 129.558594 208.375 133.300781 C 208.300781 136.746094 205.753906 139.292969 202.90625 139.292969 Z M 177.445312 126.488281 L 177.445312 130.457031 L 187.480469 130.457031 C 187.179688 132.703125 186.355469 134.425781 185.160156 135.550781 C 183.734375 136.972656 181.414062 138.695312 177.445312 138.695312 C 171.453125 138.695312 166.585938 133.828125 166.585938 127.835938 C 166.585938 121.84375 171.453125 116.976562 177.445312 116.976562 C 180.589844 116.976562 183.136719 118.101562 184.859375 119.824219 L 187.707031 116.976562 C 185.160156 114.730469 182.011719 112.707031 177.445312 112.707031 C 169.132812 112.707031 162.019531 119.523438 162.019531 127.835938 C 162.019531 136.074219 168.90625 142.964844 177.445312 142.964844 C 182.011719 142.964844 185.457031 141.539062 188.003906 138.695312 C 190.851562 135.847656 191.449219 132.105469 191.449219 129.035156 C 191.449219 128.210938 191.449219 127.3125 191.148438 126.488281 C 191.449219 126.488281 177.445312 126.488281 177.445312 126.488281 Z M 280.941406 129.933594 C 280.117188 127.6875 277.796875 123.640625 272.628906 123.640625 C 267.460938 123.640625 263.492188 127.609375 263.492188 133.300781 C 263.492188 138.695312 267.460938 142.964844 273.230469 142.964844 C 277.796875 142.964844 280.34375 140.117188 281.242188 138.695312 L 277.796875 136.449219 C 276.671875 138.171875 275.25 138.992188 272.929688 138.992188 C 270.605469 138.992188 269.183594 138.171875 268.359375 136.148438 L 281.542969 130.757812 C 281.542969 131.054688 280.941406 129.933594 280.941406 129.933594 Z M 267.761719 133.003906 C 267.761719 129.332031 270.605469 127.3125 272.929688 127.3125 C 274.652344 127.3125 276.074219 128.136719 276.671875 129.332031 C 276.375 129.332031 267.761719 133.003906 267.761719 133.003906 Z M 257.203125 142.4375 L 261.472656 142.4375 L 261.472656 113.90625 L 257.203125 113.90625 Z M 250.386719 125.886719 C 249.265625 124.765625 247.542969 123.640625 245.21875 123.640625 C 240.351562 123.640625 235.785156 127.910156 235.785156 133.300781 C 235.785156 138.695312 240.351562 143.039062 245.21875 143.039062 C 247.542969 143.039062 249.488281 141.914062 250.386719 140.792969 L 250.6875 140.792969 L 250.6875 142.214844 C 250.6875 145.882812 248.664062 147.90625 245.519531 147.90625 C 242.972656 147.90625 241.25 145.882812 240.652344 144.460938 L 236.90625 145.882812 C 238.03125 148.429688 240.875 151.574219 245.519531 151.574219 C 250.6875 151.574219 254.65625 148.730469 254.65625 141.613281 L 254.65625 124.242188 L 250.6875 124.242188 Z M 245.21875 139.292969 C 242.375 139.292969 239.753906 136.746094 239.753906 133.300781 C 239.753906 129.859375 242.300781 127.3125 245.21875 127.3125 C 248.066406 127.3125 250.386719 129.859375 250.386719 133.300781 C 250.613281 136.746094 248.367188 139.292969 245.21875 139.292969 Z M 300.9375 113.980469 L 290.675781 113.980469 L 290.675781 142.515625 L 294.945312 142.515625 L 294.945312 131.65625 L 300.9375 131.65625 C 305.804688 131.65625 310.375 128.210938 310.375 122.816406 C 310.375 117.351562 305.804688 113.980469 300.9375 113.980469 Z M 301.238281 127.609375 L 295.246094 127.609375 L 295.246094 117.949219 L 301.238281 117.949219 C 304.382812 117.949219 306.40625 120.496094 306.40625 122.816406 C 306.105469 125.066406 304.382812 127.609375 301.238281 127.609375 Z M 327.523438 123.640625 C 324.378906 123.640625 321.230469 125.066406 319.808594 127.910156 L 323.554688 129.632812 C 324.378906 127.910156 325.875 127.609375 327.523438 127.609375 C 329.84375 127.609375 332.089844 129.035156 332.089844 131.28125 L 332.089844 131.578125 C 331.265625 130.980469 329.769531 130.457031 327.523438 130.457031 C 323.554688 130.457031 319.210938 132.703125 319.210938 136.746094 C 319.210938 140.417969 322.65625 143.039062 326.324219 143.039062 C 329.171875 143.039062 330.894531 141.613281 331.792969 140.191406 L 332.089844 140.191406 L 332.089844 142.4375 L 336.058594 142.4375 L 336.058594 131.578125 C 336.136719 126.488281 332.390625 123.640625 327.523438 123.640625 Z M 327 139.292969 C 325.574219 139.292969 323.554688 138.695312 323.554688 137.046875 C 323.554688 134.800781 325.875 133.902344 328.121094 133.902344 C 330.144531 133.902344 330.96875 134.203125 332.089844 134.726562 C 331.792969 137.347656 329.546875 139.292969 327 139.292969 Z M 351.261719 124.167969 L 346.394531 136.449219 L 346.09375 136.449219 L 340.929688 124.167969 L 336.359375 124.167969 L 344.074219 141.539062 L 339.804688 150.976562 L 344.375 150.976562 L 356.128906 124.167969 Z M 312.695312 142.4375 L 316.964844 142.4375 L 316.964844 113.90625 L 312.695312 113.90625 Z M 312.695312 142.4375 " fill-opacity="1" fill-rule="nonzero"/><g clip-path="url(#5eec925891)"><g clip-path="url(#a475d3c5fa)"><path fill="url(#2d95828ae5)" d="M 92.746094 148.207031 L 92.746094 91.140625 L 122.476562 91.140625 L 122.476562 148.207031 Z M 92.746094 148.207031 " fill-rule="nonzero"/></g></g><g clip-path="url(#4d68700737)"><g clip-path="url(#51ecbd2bd2)"><path fill="url(#5f17f5d9be)" d="M 122.402344 129.332031 L 122.402344 109.863281 L 146.441406 109.863281 L 146.441406 129.332031 Z M 122.402344 129.332031 " fill-rule="nonzero"/></g></g><g clip-path="url(#955ea50c72)"><g clip-path="url(#2c620e4b4b)"><path fill="url(#325ddc1679)" d="M 93.792969 149.328125 L 93.792969 119.671875 L 132.136719 119.671875 L 132.136719 149.328125 Z M 93.792969 149.328125 " fill-rule="nonzero"/></g></g><g clip-path="url(#d5a41c7a68)"><g clip-path="url(#54abc9480c)"><path fill="url(#43d4de2b25)" d="M 93.792969 119.972656 L 93.792969 90.015625 L 132.136719 90.015625 L 132.136719 119.972656 Z M 93.792969 119.972656 " fill-rule="nonzero"/></g></g><path fill="#ffffff" d="M 166.585938 88.070312 C 167.484375 87.84375 169.132812 87.621094 170.480469 87.621094 C 172.578125 87.621094 173.925781 88.070312 175.050781 88.742188 C 175.949219 89.417969 176.398438 90.390625 176.398438 91.738281 C 176.398438 93.386719 175.273438 94.734375 173.625 95.410156 C 175.199219 95.859375 177.070312 97.054688 177.070312 99.527344 C 177.070312 100.875 176.621094 102.074219 175.722656 102.746094 C 174.601562 103.871094 172.726562 104.394531 169.957031 104.394531 C 168.609375 104.394531 167.410156 104.394531 166.734375 104.171875 Z M 168.683594 94.960938 L 170.480469 94.960938 C 172.800781 94.960938 174.148438 93.835938 174.148438 92.1875 C 174.148438 90.316406 172.800781 89.417969 170.480469 89.417969 C 169.582031 89.417969 168.90625 89.417969 168.683594 89.640625 Z M 168.683594 103.046875 C 169.132812 103.046875 169.808594 103.046875 170.480469 103.046875 C 172.800781 103.046875 174.824219 102.148438 174.824219 99.828125 C 174.824219 97.503906 173.027344 96.605469 170.480469 96.605469 L 168.683594 96.605469 Z M 168.683594 103.046875 " fill-opacity="1" fill-rule="nonzero"/><path fill="#ffffff" d="M 186.355469 104.621094 L 186.132812 102.972656 C 185.457031 103.871094 184.335938 104.84375 182.464844 104.84375 C 179.917969 104.84375 178.792969 103.195312 178.792969 101.398438 C 178.792969 98.402344 181.339844 97.054688 185.90625 97.054688 L 185.90625 96.832031 C 185.90625 95.933594 185.683594 94.0625 183.136719 94.0625 C 182.015625 94.0625 180.816406 94.511719 179.917969 94.960938 L 179.46875 93.609375 C 180.367188 92.9375 182.011719 92.488281 183.363281 92.488281 C 187.03125 92.488281 187.929688 95.035156 187.929688 97.355469 L 187.929688 101.699219 C 187.929688 102.824219 187.929688 103.796875 188.15625 104.46875 L 186.355469 104.46875 Z M 186.132812 98.402344 C 183.8125 98.402344 181.113281 98.855469 181.113281 101.175781 C 181.113281 102.523438 182.015625 103.273438 183.210938 103.273438 C 184.785156 103.273438 185.757812 102.375 186.207031 101.175781 C 186.207031 100.949219 186.433594 100.726562 186.433594 100.5 Z M 186.132812 98.402344 " fill-opacity="1" fill-rule="nonzero"/><path fill="#ffffff" d="M 194.144531 89.191406 C 194.144531 89.867188 193.695312 90.539062 192.796875 90.539062 C 192.125 90.539062 191.449219 89.867188 191.449219 89.191406 C 191.449219 88.519531 191.898438 87.84375 192.796875 87.84375 C 193.472656 87.84375 194.144531 88.519531 194.144531 89.191406 Z M 191.597656 104.621094 L 191.597656 92.636719 L 193.921875 92.636719 L 193.921875 104.621094 Z M 191.597656 104.621094 " fill-opacity="1" fill-rule="nonzero"/><path fill="#ffffff" d="M 198.488281 92.636719 L 200.0625 95.183594 C 200.511719 95.859375 200.960938 96.53125 201.183594 97.054688 C 201.632812 96.382812 201.859375 95.707031 202.308594 94.960938 L 203.882812 92.414062 L 206.203125 92.414062 L 202.082031 98.179688 L 206.203125 104.394531 L 203.65625 104.394531 L 201.859375 101.625 C 201.410156 100.949219 200.960938 100.277344 200.511719 99.527344 C 200.0625 100.203125 199.613281 100.875 199.386719 101.625 L 197.589844 104.394531 L 195.269531 104.394531 L 199.386719 98.402344 L 195.269531 92.636719 Z M 198.488281 92.636719 " fill-opacity="1" fill-rule="nonzero"/><path fill="#ffffff" d="M 215.488281 104.621094 L 215.265625 102.972656 C 214.589844 103.871094 213.46875 104.84375 211.59375 104.84375 C 209.046875 104.84375 207.925781 103.195312 207.925781 101.398438 C 207.925781 98.402344 210.472656 97.054688 215.039062 97.054688 L 215.039062 96.832031 C 215.039062 95.707031 214.816406 94.0625 212.269531 94.0625 C 211.144531 94.0625 209.949219 94.511719 209.046875 94.960938 L 208.597656 93.609375 C 209.496094 92.9375 211.144531 92.488281 212.492188 92.488281 C 216.164062 92.488281 217.0625 95.035156 217.0625 97.355469 L 217.0625 101.699219 C 217.0625 102.824219 217.0625 103.796875 217.285156 104.46875 L 215.488281 104.46875 Z M 214.964844 98.402344 C 212.644531 98.402344 209.949219 98.855469 209.949219 101.175781 C 209.949219 102.523438 210.847656 103.273438 212.042969 103.273438 C 213.617188 103.273438 214.589844 102.375 215.039062 101.175781 C 215.039062 100.949219 215.265625 100.726562 215.265625 100.5 L 215.265625 98.402344 Z M 214.964844 98.402344 " fill-opacity="1" fill-rule="nonzero"/><path fill="#ffffff" d="M 220.730469 96.308594 C 220.730469 94.960938 220.730469 93.761719 220.730469 92.636719 L 222.527344 92.636719 L 222.527344 94.960938 C 222.976562 93.3125 224.324219 92.414062 225.75 92.414062 C 225.972656 92.414062 226.199219 92.414062 226.421875 92.414062 L 226.421875 94.511719 C 226.199219 94.511719 225.972656 94.511719 225.75 94.511719 C 224.175781 94.511719 223.203125 95.632812 222.753906 97.28125 C 222.753906 97.503906 222.753906 97.953125 222.753906 98.179688 L 222.753906 104.621094 L 220.65625 104.621094 L 220.65625 96.308594 Z M 220.730469 96.308594 " fill-opacity="1" fill-rule="nonzero"/><path fill="#ffffff" d="M 234.0625 95.859375 C 234.0625 94.734375 234.0625 93.535156 234.0625 92.636719 L 235.859375 92.636719 L 236.082031 94.734375 C 236.757812 93.609375 238.179688 92.414062 239.976562 92.414062 C 241.550781 92.414062 244.097656 93.3125 244.097656 97.503906 L 244.097656 104.621094 L 242 104.621094 L 242 97.730469 C 242 95.859375 241.324219 94.285156 239.230469 94.285156 C 237.882812 94.285156 236.683594 95.183594 236.234375 96.605469 C 236.234375 96.832031 236.007812 97.28125 236.007812 97.503906 L 236.007812 104.621094 L 233.910156 104.621094 L 233.910156 95.859375 Z M 234.0625 95.859375 " fill-opacity="1" fill-rule="nonzero"/><path fill="#ffffff" d="M 254.207031 104.621094 L 253.980469 102.972656 C 253.308594 103.871094 252.183594 104.84375 250.3125 104.84375 C 247.765625 104.84375 246.644531 103.195312 246.644531 101.398438 C 246.644531 98.402344 249.1875 97.054688 253.757812 97.054688 L 253.757812 96.832031 C 253.757812 95.707031 253.53125 94.0625 250.988281 94.0625 C 249.863281 94.0625 248.664062 94.511719 247.765625 94.960938 L 247.316406 93.609375 C 248.214844 92.9375 249.863281 92.488281 251.210938 92.488281 C 254.878906 92.488281 255.78125 95.035156 255.78125 97.355469 L 255.78125 101.699219 C 255.78125 102.824219 255.78125 103.796875 256.003906 104.46875 L 254.207031 104.46875 Z M 253.757812 98.402344 C 251.4375 98.402344 248.738281 98.855469 248.738281 101.175781 C 248.738281 102.523438 249.636719 103.273438 250.835938 103.273438 C 252.410156 103.273438 253.382812 102.375 253.832031 101.175781 C 253.832031 100.949219 254.058594 100.726562 254.058594 100.5 L 254.058594 98.402344 Z M 253.757812 98.402344 " fill-opacity="1" fill-rule="nonzero"/></svg>