<svg xmlns="http://www.w3.org/2000/svg" xmlns:xlink="http://www.w3.org/1999/xlink" width="600" zoomAndPan="magnify" viewBox="0 0 450 337.499995" height="450" preserveAspectRatio="xMidYMid meet" version="1.0"><defs><clipPath id="57663dcc16"><path d="M 0.332031 0 L 449.667969 0 L 449.667969 337 L 0.332031 337 Z M 0.332031 0 " clip-rule="nonzero"/></clipPath><clipPath id="1e3b52314f"><path d="M 70.277344 97.65625 L 379.871094 97.65625 L 379.871094 189.695312 L 70.277344 189.695312 Z M 70.277344 97.65625 " clip-rule="nonzero"/></clipPath></defs><g clip-path="url(#57663dcc16)"><path fill="#ffffff" d="M 0.332031 0 L 449.667969 0 L 449.667969 337 L 0.332031 337 Z M 0.332031 0 " fill-opacity="1" fill-rule="nonzero"/><path fill="#ffffff" d="M 0.332031 0 L 449.667969 0 L 449.667969 337 L 0.332031 337 Z M 0.332031 0 " fill-opacity="1" fill-rule="nonzero"/></g><g clip-path="url(#1e3b52314f)"><path fill="#010202" d="M 379.871094 180.558594 C 379.871094 185.652344 375.902344 189.695312 371.035156 189.695312 L 79.117188 189.695312 C 74.25 189.695312 70.277344 185.578125 70.277344 180.558594 L 70.277344 106.792969 C 70.277344 101.703125 74.25 97.65625 79.117188 97.65625 L 371.035156 97.65625 C 375.902344 97.65625 379.871094 101.777344 379.871094 106.792969 Z M 379.871094 180.558594 " fill-opacity="1" fill-rule="nonzero"/></g><path fill="#ffffff" d="M 132.886719 145.0625 C 132.886719 137.722656 138.878906 134.054688 139.328125 133.753906 C 135.882812 128.660156 130.414062 127.988281 128.542969 127.988281 C 123.976562 127.539062 119.632812 130.757812 117.308594 130.757812 C 114.988281 130.757812 111.320312 127.988281 107.648438 128.210938 C 102.855469 128.210938 98.210938 131.207031 95.742188 135.550781 C 90.5 144.539062 94.394531 157.867188 99.410156 165.207031 C 101.957031 168.878906 104.878906 172.773438 108.546875 172.546875 C 112.21875 172.324219 113.566406 170.226562 118.207031 170.226562 C 122.550781 170.226562 123.976562 172.546875 127.867188 172.546875 C 131.761719 172.546875 134.308594 168.878906 136.78125 165.433594 C 139.777344 161.3125 140.898438 157.34375 140.898438 157.121094 C 140.675781 156.746094 133.109375 153.824219 132.886719 145.0625 Z M 132.886719 145.0625 " fill-opacity="1" fill-rule="nonzero"/><path fill="#ffffff" d="M 125.546875 123.195312 C 127.644531 120.648438 128.992188 117.203125 128.542969 113.757812 C 125.546875 113.984375 122.101562 115.855469 119.855469 118.101562 C 118.058594 120.199219 116.410156 123.871094 116.859375 127.089844 C 120.304688 127.539062 123.523438 125.742188 125.546875 123.195312 Z M 125.546875 123.195312 " fill-opacity="1" fill-rule="nonzero"/><path fill="#ffffff" d="M 187.707031 170.152344 L 182.464844 170.152344 L 179.691406 161.164062 L 169.808594 161.164062 L 167.035156 170.152344 L 162.019531 170.152344 L 171.902344 139.519531 L 177.894531 139.519531 Z M 179.019531 157.496094 L 176.472656 149.40625 C 176.246094 148.507812 175.796875 146.636719 174.898438 143.640625 C 174.675781 144.988281 174.226562 146.859375 173.550781 149.40625 L 170.78125 157.496094 Z M 179.019531 157.496094 " fill-opacity="1" fill-rule="nonzero"/><path fill="#ffffff" d="M 213.167969 158.84375 C 213.167969 162.511719 212.269531 165.507812 210.171875 167.828125 C 208.375 169.703125 206.054688 170.824219 203.507812 170.824219 C 200.511719 170.824219 198.488281 169.703125 197.292969 167.605469 L 197.292969 179.363281 L 192.5 179.363281 L 192.5 155.398438 C 192.5 153.074219 192.5 150.53125 192.273438 148.058594 L 196.617188 148.058594 L 196.839844 151.503906 C 198.414062 148.957031 200.960938 147.609375 204.179688 147.609375 C 206.726562 147.609375 208.972656 148.507812 210.621094 150.605469 C 212.269531 152.625 213.167969 155.398438 213.167969 158.84375 Z M 208.148438 159.066406 C 208.148438 156.96875 207.699219 155.171875 206.800781 153.75 C 205.679688 152.402344 204.253906 151.652344 202.457031 151.652344 C 201.335938 151.652344 200.136719 152.101562 199.238281 152.777344 C 198.339844 153.675781 197.664062 154.648438 197.441406 155.996094 C 197.214844 156.671875 197.214844 157.121094 197.214844 157.34375 L 197.214844 161.015625 C 197.214844 162.660156 197.664062 164.007812 198.5625 165.132812 C 199.460938 166.257812 200.886719 166.78125 202.457031 166.78125 C 204.253906 166.78125 205.679688 166.105469 206.800781 164.683594 C 207.699219 163.261719 208.148438 161.386719 208.148438 159.066406 Z M 208.148438 159.066406 " fill-opacity="1" fill-rule="nonzero"/><path fill="#ffffff" d="M 238.40625 158.84375 C 238.40625 162.511719 237.507812 165.507812 235.410156 167.828125 C 233.613281 169.703125 231.289062 170.824219 228.746094 170.824219 C 225.75 170.824219 223.726562 169.703125 222.527344 167.605469 L 222.527344 179.363281 L 217.734375 179.363281 L 217.734375 155.398438 C 217.734375 153.074219 217.734375 150.53125 217.511719 148.058594 L 221.855469 148.058594 L 222.078125 151.503906 C 223.652344 148.957031 226.199219 147.609375 229.417969 147.609375 C 231.964844 147.609375 234.210938 148.507812 235.859375 150.605469 C 237.507812 152.625 238.40625 155.398438 238.40625 158.84375 Z M 233.3125 159.066406 C 233.3125 156.96875 232.863281 155.171875 231.964844 153.75 C 230.839844 152.402344 229.417969 151.652344 227.621094 151.652344 C 226.496094 151.652344 225.300781 152.101562 224.402344 152.777344 C 223.503906 153.675781 222.828125 154.648438 222.605469 155.996094 C 222.378906 156.671875 222.378906 157.121094 222.378906 157.34375 L 222.378906 161.015625 C 222.378906 162.660156 222.828125 164.007812 223.726562 165.132812 C 224.625 166.257812 226.046875 166.78125 227.621094 166.78125 C 229.417969 166.78125 230.839844 166.105469 231.964844 164.683594 C 232.863281 163.261719 233.3125 161.386719 233.3125 159.066406 Z M 233.3125 159.066406 " fill-opacity="1" fill-rule="nonzero"/><path fill="#ffffff" d="M 266.5625 161.613281 C 266.5625 164.160156 265.664062 166.480469 263.792969 168.054688 C 261.695312 169.925781 259 170.824219 255.554688 170.824219 C 252.335938 170.824219 249.5625 170.152344 247.765625 168.953125 L 248.890625 164.832031 C 250.988281 166.179688 253.457031 166.929688 256.003906 166.929688 C 257.800781 166.929688 259.222656 166.480469 260.347656 165.808594 C 261.246094 164.910156 261.921875 163.933594 261.921875 162.363281 C 261.921875 161.238281 261.472656 160.039062 260.574219 159.140625 C 259.671875 158.242188 258.25 157.496094 256.453125 156.820312 C 251.210938 154.722656 248.441406 151.953125 248.441406 148.058594 C 248.441406 145.511719 249.339844 143.488281 251.210938 141.84375 C 253.007812 140.195312 255.554688 139.519531 258.773438 139.519531 C 261.546875 139.519531 263.792969 139.96875 265.664062 140.867188 L 264.316406 144.539062 C 262.519531 143.640625 260.648438 143.191406 258.550781 143.191406 C 256.753906 143.191406 255.554688 143.640625 254.429688 144.539062 C 253.53125 145.210938 253.308594 146.1875 253.308594 147.308594 C 253.308594 148.433594 253.757812 149.632812 254.65625 150.304688 C 255.554688 150.980469 256.976562 151.953125 259 152.625 C 261.546875 153.75 263.566406 154.949219 264.765625 156.296875 C 266.113281 157.71875 266.5625 159.515625 266.5625 161.613281 Z M 266.5625 161.613281 " fill-opacity="1" fill-rule="nonzero"/><path fill="#ffffff" d="M 282.890625 151.726562 L 277.648438 151.726562 L 277.648438 162.511719 C 277.648438 165.28125 278.546875 166.628906 280.417969 166.628906 C 281.316406 166.628906 281.992188 166.628906 282.515625 166.40625 L 282.738281 170.074219 C 281.839844 170.523438 280.417969 170.523438 278.84375 170.523438 C 277.046875 170.523438 275.398438 169.851562 274.277344 168.652344 C 273.152344 167.53125 272.703125 165.433594 272.703125 162.660156 L 272.703125 151.652344 L 269.484375 151.652344 L 269.484375 148.058594 L 272.703125 148.058594 L 272.703125 143.9375 L 277.496094 142.589844 L 277.496094 148.132812 L 282.738281 148.132812 C 282.890625 148.058594 282.890625 151.726562 282.890625 151.726562 Z M 282.890625 151.726562 " fill-opacity="1" fill-rule="nonzero"/><path fill="#ffffff" d="M 307.226562 158.84375 C 307.226562 162.289062 306.328125 165.058594 304.234375 167.15625 C 302.136719 169.476562 299.441406 170.601562 296.21875 170.601562 C 293 170.601562 290.453125 169.476562 288.429688 167.378906 C 286.335938 165.28125 285.433594 162.511719 285.433594 159.292969 C 285.433594 155.847656 286.335938 153.074219 288.429688 150.753906 C 290.527344 148.65625 293 147.535156 296.445312 147.535156 C 299.664062 147.535156 302.210938 148.65625 304.234375 150.753906 C 306.253906 152.851562 307.226562 155.621094 307.226562 158.84375 Z M 302.136719 159.066406 C 302.136719 156.96875 301.6875 155.398438 300.789062 153.75 C 299.890625 151.878906 298.242188 151.203125 296.445312 151.203125 C 294.347656 151.203125 293 152.101562 291.875 153.75 C 290.976562 155.097656 290.527344 156.96875 290.527344 159.066406 C 290.527344 161.164062 290.976562 162.738281 291.875 164.382812 C 293 166.257812 294.421875 166.929688 296.21875 166.929688 C 298.015625 166.929688 299.664062 166.03125 300.5625 164.160156 C 301.6875 162.738281 302.136719 161.164062 302.136719 159.066406 Z M 302.136719 159.066406 " fill-opacity="1" fill-rule="nonzero"/><path fill="#ffffff" d="M 323.03125 152.402344 C 322.582031 152.402344 322.132812 152.175781 321.457031 152.175781 C 319.660156 152.175781 318.460938 152.851562 317.5625 154.273438 C 316.664062 155.398438 316.441406 156.820312 316.441406 158.617188 L 316.441406 170.152344 L 311.648438 170.152344 L 311.648438 154.949219 C 311.648438 152.402344 311.648438 150.082031 311.421875 148.058594 L 315.765625 148.058594 L 315.988281 152.175781 L 316.214844 152.175781 C 316.664062 150.828125 317.5625 149.632812 318.761719 148.730469 C 319.882812 148.058594 321.082031 147.609375 322.207031 147.609375 C 322.65625 147.609375 323.105469 147.609375 323.328125 147.609375 C 323.03125 147.832031 323.03125 152.402344 323.03125 152.402344 Z M 323.03125 152.402344 " fill-opacity="1" fill-rule="nonzero"/><path fill="#ffffff" d="M 345.046875 158.167969 C 345.046875 159.066406 345.046875 159.816406 344.824219 160.488281 L 330.144531 160.488281 C 330.144531 162.585938 330.816406 164.382812 332.242188 165.582031 C 333.363281 166.480469 335.011719 167.230469 337.035156 167.230469 C 339.132812 167.230469 341.152344 166.78125 343.023438 166.105469 L 343.699219 169.550781 C 341.601562 170.449219 339.132812 170.898438 336.359375 170.898438 C 332.914062 170.898438 330.144531 170 328.347656 167.902344 C 326.550781 165.808594 325.351562 163.335938 325.351562 159.816406 C 325.351562 156.597656 326.25 153.601562 328.121094 151.503906 C 329.917969 149.183594 332.464844 148.058594 335.910156 148.058594 C 339.132812 148.058594 341.378906 149.183594 343.023438 151.503906 C 344.375 152.851562 345.046875 155.398438 345.046875 158.167969 Z M 340.179688 156.820312 C 340.179688 155.472656 339.953125 154.050781 339.28125 153.152344 C 338.382812 151.804688 337.183594 151.054688 335.386719 151.054688 C 333.8125 151.054688 332.390625 151.726562 331.492188 153.152344 C 330.59375 154.273438 330.144531 155.472656 330.144531 157.046875 Z M 340.179688 156.820312 " fill-opacity="1" fill-rule="nonzero"/><path fill="#ffffff" d="M 166.585938 112.410156 C 167.484375 112.1875 169.132812 111.960938 170.480469 111.960938 C 172.578125 111.960938 173.925781 112.410156 175.050781 113.085938 C 175.949219 113.757812 176.398438 114.734375 176.398438 116.082031 C 176.398438 117.726562 175.273438 119.078125 173.625 119.75 C 175.199219 120.199219 177.070312 121.398438 177.070312 123.871094 C 177.070312 125.21875 176.621094 126.414062 175.722656 127.089844 C 174.601562 128.210938 172.726562 128.738281 169.957031 128.738281 C 168.609375 128.738281 167.410156 128.738281 166.734375 128.511719 Z M 168.683594 119.300781 L 170.480469 119.300781 C 172.800781 119.300781 174.148438 118.175781 174.148438 116.53125 C 174.148438 114.65625 172.800781 113.757812 170.480469 113.757812 C 169.582031 113.757812 168.90625 113.757812 168.683594 113.984375 Z M 168.683594 127.3125 C 169.132812 127.3125 169.808594 127.3125 170.480469 127.3125 C 172.800781 127.3125 174.824219 126.414062 174.824219 124.09375 C 174.824219 121.773438 173.027344 120.875 170.480469 120.875 L 168.683594 120.875 Z M 168.683594 127.3125 " fill-opacity="1" fill-rule="nonzero"/><path fill="#ffffff" d="M 186.355469 128.960938 L 186.132812 127.3125 C 185.457031 128.210938 184.335938 129.1875 182.464844 129.1875 C 179.917969 129.1875 178.792969 127.539062 178.792969 125.742188 C 178.792969 122.746094 181.339844 121.398438 185.90625 121.398438 L 185.90625 121.097656 C 185.90625 120.199219 185.683594 118.328125 183.136719 118.328125 C 182.015625 118.328125 180.816406 118.777344 179.917969 119.226562 L 179.46875 117.878906 C 180.367188 117.203125 182.011719 116.753906 183.363281 116.753906 C 187.03125 116.753906 187.929688 119.300781 187.929688 121.621094 L 187.929688 125.964844 C 187.929688 127.089844 187.929688 128.0625 188.15625 128.738281 L 186.355469 128.738281 Z M 186.132812 122.746094 C 183.8125 122.746094 181.113281 123.195312 181.113281 125.515625 C 181.113281 126.863281 182.015625 127.613281 183.210938 127.613281 C 184.785156 127.613281 185.757812 126.714844 186.207031 125.515625 C 186.207031 125.292969 186.433594 125.066406 186.433594 124.84375 Z M 186.132812 122.746094 " fill-opacity="1" fill-rule="nonzero"/><path fill="#ffffff" d="M 194.144531 113.535156 C 194.144531 114.207031 193.695312 114.882812 192.796875 114.882812 C 192.125 114.882812 191.449219 114.207031 191.449219 113.535156 C 191.449219 112.859375 191.898438 112.1875 192.796875 112.1875 C 193.472656 112.113281 194.144531 112.859375 194.144531 113.535156 Z M 191.597656 128.960938 L 191.597656 116.980469 L 193.921875 116.980469 L 193.921875 128.960938 Z M 191.597656 128.960938 " fill-opacity="1" fill-rule="nonzero"/><path fill="#ffffff" d="M 198.488281 116.980469 L 200.0625 119.527344 C 200.511719 120.199219 200.960938 120.875 201.183594 121.398438 C 201.632812 120.722656 201.859375 120.050781 202.308594 119.300781 L 203.882812 116.753906 L 206.203125 116.753906 L 202.082031 122.519531 L 206.203125 128.738281 L 203.65625 128.738281 L 201.859375 125.964844 C 201.410156 125.292969 200.960938 124.617188 200.511719 123.871094 C 200.0625 124.542969 199.613281 125.21875 199.386719 125.964844 L 197.589844 128.738281 L 195.269531 128.738281 L 199.386719 122.746094 L 195.269531 116.980469 Z M 198.488281 116.980469 " fill-opacity="1" fill-rule="nonzero"/><path fill="#ffffff" d="M 215.488281 128.960938 L 215.265625 127.3125 C 214.589844 128.210938 213.46875 129.1875 211.59375 129.1875 C 209.046875 129.1875 207.925781 127.539062 207.925781 125.742188 C 207.925781 122.746094 210.472656 121.398438 215.039062 121.398438 L 215.039062 121.097656 C 215.039062 119.976562 214.816406 118.328125 212.269531 118.328125 C 211.144531 118.328125 209.949219 118.777344 209.046875 119.226562 L 208.597656 117.878906 C 209.496094 117.203125 211.144531 116.753906 212.492188 116.753906 C 216.164062 116.753906 217.0625 119.300781 217.0625 121.621094 L 217.0625 125.964844 C 217.0625 127.089844 217.0625 128.0625 217.285156 128.738281 L 215.488281 128.738281 Z M 214.964844 122.746094 C 212.644531 122.746094 209.949219 123.195312 209.949219 125.515625 C 209.949219 126.863281 210.847656 127.613281 212.042969 127.613281 C 213.617188 127.613281 214.589844 126.714844 215.039062 125.515625 C 215.039062 125.292969 215.265625 125.066406 215.265625 124.84375 L 215.265625 122.746094 Z M 214.964844 122.746094 " fill-opacity="1" fill-rule="nonzero"/><path fill="#ffffff" d="M 220.730469 120.648438 C 220.730469 119.300781 220.730469 118.101562 220.730469 116.980469 L 222.527344 116.980469 L 222.527344 119.300781 C 222.976562 117.652344 224.324219 116.753906 225.75 116.753906 C 225.972656 116.753906 226.199219 116.753906 226.421875 116.753906 L 226.421875 118.851562 C 226.199219 118.851562 225.972656 118.851562 225.75 118.851562 C 224.175781 118.851562 223.203125 119.976562 222.753906 121.621094 C 222.753906 121.847656 222.753906 122.296875 222.753906 122.519531 L 222.753906 128.960938 L 220.65625 128.960938 L 220.65625 120.648438 Z M 220.730469 120.648438 " fill-opacity="1" fill-rule="nonzero"/><path fill="#ffffff" d="M 234.0625 120.199219 C 234.0625 119.078125 234.0625 117.878906 234.0625 116.980469 L 235.859375 116.980469 L 236.082031 119.078125 C 236.757812 117.953125 238.179688 116.753906 239.976562 116.753906 C 241.550781 116.753906 244.097656 117.652344 244.097656 121.847656 L 244.097656 128.960938 L 242 128.960938 L 242 122.070312 C 242 120.199219 241.324219 118.625 239.230469 118.625 C 237.882812 118.625 236.683594 119.527344 236.234375 120.949219 C 236.234375 121.171875 236.007812 121.621094 236.007812 121.847656 L 236.007812 128.960938 L 233.910156 128.960938 L 233.910156 120.199219 Z M 234.0625 120.199219 " fill-opacity="1" fill-rule="nonzero"/><path fill="#ffffff" d="M 254.207031 128.960938 L 253.980469 127.3125 C 253.308594 128.210938 252.183594 129.1875 250.3125 129.1875 C 247.765625 129.1875 246.644531 127.539062 246.644531 125.742188 C 246.644531 122.746094 249.1875 121.398438 253.757812 121.398438 L 253.757812 121.097656 C 253.757812 119.976562 253.53125 118.328125 250.988281 118.328125 C 249.863281 118.328125 248.664062 118.777344 247.765625 119.226562 L 247.316406 117.878906 C 248.214844 117.203125 249.863281 116.753906 251.210938 116.753906 C 254.878906 116.753906 255.78125 119.300781 255.78125 121.621094 L 255.78125 125.964844 C 255.78125 127.089844 255.78125 128.0625 256.003906 128.738281 L 254.207031 128.738281 Z M 253.757812 122.746094 C 251.4375 122.746094 248.738281 123.195312 248.738281 125.515625 C 248.738281 126.863281 249.636719 127.613281 250.835938 127.613281 C 252.410156 127.613281 253.382812 126.714844 253.832031 125.515625 C 253.832031 125.292969 254.058594 125.066406 254.058594 124.84375 L 254.058594 122.746094 Z M 253.757812 122.746094 " fill-opacity="1" fill-rule="nonzero"/></svg>