<svg xmlns="http://www.w3.org/2000/svg" width="180" height="56" viewBox="0 0 180 56" role="img" aria-label="App Store">
  <rect width="180" height="56" rx="10" fill="#080808"/>
  <rect x="1" y="1" width="178" height="54" rx="9" fill="none" stroke="#ffffff" stroke-opacity=".22"/>
  <path fill="#fff" d="M38 28c0-5 4-9 9-9 2 0 4 1 6 2-1 1-3 3-3 6 0 4 3 6 4 7-1 3-4 7-7 7-2 0-3-1-5-1s-3 1-5 1c-4 0-9-8-9-14 0-5 3-9 8-9 2 0 4 1 5 1-1-2 0-5 2-7 1 2 0 5-2 7-1 0-2 0-3 1z"/>
  <text x="68" y="23" fill="#fff" font-family="Arial, sans-serif" font-size="10">Baixe na</text>
  <text x="68" y="39" fill="#fff" font-family="Arial, sans-serif" font-size="18" font-weight="700">App Store</text>
</svg>
