<svg xmlns="http://www.w3.org/2000/svg" width="240" height="240" viewBox="0 0 240 240" role="img" aria-label="QR Code">
  <rect width="240" height="240" rx="18" fill="#f7f7f7"/>
  <g fill="#080808">
    <rect x="24" y="24" width="54" height="54"/>
    <rect x="36" y="36" width="30" height="30" fill="#f7f7f7"/>
    <rect x="162" y="24" width="54" height="54"/>
    <rect x="174" y="36" width="30" height="30" fill="#f7f7f7"/>
    <rect x="24" y="162" width="54" height="54"/>
    <rect x="36" y="174" width="30" height="30" fill="#f7f7f7"/>
    <rect x="96" y="30" width="12" height="12"/>
    <rect x="120" y="30" width="24" height="12"/>
    <rect x="96" y="54" width="36" height="12"/>
    <rect x="90" y="90" width="18" height="18"/>
    <rect x="120" y="90" width="12" height="36"/>
    <rect x="150" y="90" width="36" height="12"/>
    <rect x="198" y="96" width="18" height="18"/>
    <rect x="90" y="132" width="36" height="12"/>
    <rect x="138" y="126" width="12" height="24"/>
    <rect x="168" y="132" width="48" height="12"/>
    <rect x="96" y="162" width="12" height="54"/>
    <rect x="120" y="162" width="24" height="12"/>
    <rect x="156" y="162" width="12" height="24"/>
    <rect x="186" y="162" width="30" height="12"/>
    <rect x="120" y="192" width="12" height="24"/>
    <rect x="144" y="198" width="36" height="12"/>
    <rect x="198" y="198" width="18" height="18"/>
  </g>
  <circle cx="120" cy="120" r="19" fill="#e6262e"/>
  <path d="M120 108l12 8v10l-12 8-12-8v-10z" fill="#fff"/>
</svg>
