<?xml version="1.0" encoding="UTF-8"?>
<svg xmlns="http://www.w3.org/2000/svg" version="1.1" viewBox="0 0 3121 2792">
  <defs>
    <style>
      .cls-1 {
        fill: #fff;
      }
    </style>
  </defs>
  <!-- Generator: Adobe Illustrator 28.6.0, SVG Export Plug-In . SVG Version: 1.2.0 Build 709)  -->
  <g>
    <g id="Camada_1">
      <g>
        <path class="cls-1" d="M251.5,2.1c-49.2,8.6-82.4,21.3-110.3,41.8-54.4,40.1-88.4,96.1-97.9,161-2.2,15.6-2.2,45.7.1,60.6,8.7,56.7,44.3,135.3,97.5,215.8,60.5,91.4,130.1,166.1,212.1,227.6,83.4,62.6,171.8,106.6,277,138.1,35.7,10.7,70.6,18.7,123.8,28.4l30.2,5.6h1553.3l38.1-7c70.3-13,97.6-19.9,157.6-40,65.1-21.8,144.9-62.5,206.5-105.3,145.7-101.3,261.8-247.2,323-405.7,11.9-31,14.5-45.9,14.5-84,0-76.7-16.5-117.8-67.9-169-39.9-39.7-71.7-55.7-132.6-66.6-20.5-3.7-34.6-3.7-55.5,0-61.2,10.9-99.4,29-133.5,63.1-24.5,24.4-41.3,51-63,99.5-11.6,26-22.8,47.7-32.2,62.5-3.9,6-7.8,12.7-8.7,14.7-2.1,4.5-24.1,32.1-37.7,47.3-50.4,56.6-112.5,96.3-194.1,124.1-19.9,6.7-35.7,10.9-46.3,12.4-4.4.6-20.4,1.5-35.5,2-38.1,1.3-1398.8,1.3-1425.9,0-33.5-1.7-49.3-4.7-79.6-15.5-33.3-11.8-54.6-21.2-77-34-61.6-35-114.6-84.2-152.9-142-18-27.1-28.3-46.8-40.4-77.1-10.7-26.8-20.5-45.1-33.4-62.6-36.4-49.4-85.3-79.7-148.8-92.2-30.8-6.1-42.2-6.7-60.5-3.5Z"/>
        <path class="cls-1" d="M231,1168l-63.5.5-12.9,4.4c-31.2,10.7-63.8,30.9-89,55.1-34.2,32.8-56.1,75.5-63.1,123-2.3,15.8-2.3,51.2,0,67,3.4,23.4,11.4,49.1,21.6,69.5,17.4,35,61.7,77.3,100.3,96,29.6,14.3,56.9,19.9,108.6,22.5,11.3.6,61.5,1.5,111.5,2.1,72.8.8,106.9,1.6,111.2,2.9,1.2.3,2.9,29.8,4.3,75.5,1.2,38.8,3.1,71.7,6.1,102,22,226.9,98,416.3,237.1,590.7,47.9,60,86.4,99.6,148.8,153.3,43.5,37.4,71.9,58.2,124,90.7,79.4,49.6,138.7,77.5,236.3,111.2,60.4,20.8,82,26.2,174.2,43,55,10,88.9,12.6,167,12.6,72.6,0,129.1-3.5,171.4-10.6,49.8-8.3,168-39.2,212.9-55.6,98.5-35.9,227.5-110.9,312.2-181.5,22.6-18.8,36.2-31.4,66.8-61.7,61.5-60.8,101.7-107.6,136.4-158.6,36.8-54.1,58.1-90.3,85.2-145,27.6-55.4,36.3-75.6,51.4-118.1,14.6-41,24.1-72.8,37.6-125.4,10.4-40.6,14.2-58.8,18-86,6.6-47.1,9.6-84.2,12.1-149.5,1.9-49.6,4-79,6.1-84.5,1.5-3.9,12.7-4.4,109.4-5.5,117.9-1.2,149.7-2.7,176.5-8.1,41.3-8.3,88.7-36.1,116.6-68.3,23.7-27.3,42.8-62.8,48.3-89.9,3.4-16.4,4.9-33.9,4.9-58.2,0-43.6-3.3-60.6-17.8-90-12.4-25.2-27.6-46.7-46.5-65.4-19.5-19.4-37-31.4-70.2-48.1l-23.7-12h-268.3c-307.3.1-356,.7-390.7,5.6-23.5,3.2-36,7.6-59.4,21-25.2,14.4-40.5,26.2-63.2,48.9-28.2,28.1-42.8,47.8-57,76.7-22.9,46.5-23.9,57.4-26.5,307.3-1.9,177.6-3.2,228.2-6.6,254.2-2.6,20.3-15.1,66.5-26.4,97.3-18.6,51.1-47.2,103.2-77.2,140.5-31.4,39-76.4,84.1-105.2,105.5-50.8,37.6-112.1,68.1-172.6,85.6-94.1,27.3-187.7,28.1-285.8,2.4-64.2-16.9-126.3-47.1-179.6-87.3-41.8-31.6-82.2-72.3-112.8-113.7-42.4-57.4-71.4-118.7-89.4-189-5.5-21.2-7.9-35.2-9.3-53-2.5-32.3-4.3-112.4-6.1-268-1.2-110.4-2.7-184.7-4-204-1.5-20.8-3.4-30.4-8.9-44.8-22.6-59.2-51.9-100.8-92.6-131.7-21.8-16.6-44.4-29.1-80.5-44.8l-19.5-8.4-262.5-.4c-144.4-.3-291.1-.2-326,.1Z"/>
      </g>
    </g>
  </g>
</svg>